<svg width="62" height="65" viewBox="0 0 62 65" fill="#F0D53B" xmlns="http://www.w3.org/2000/svg">
<path d="M0.0483103 38.5688C0.0483103 35.8625 0.0718014 33.1562 0.0248306 30.4498C0.0248306 29.838 0.236193 29.5556 0.752871 29.3202C6.90604 26.5904 13.0827 23.8605 19.2359 21.1307C20.3162 20.6365 20.3397 20.66 19.6116 19.7187C16.2532 15.318 12.8948 10.9408 9.51293 6.56364C9.11368 6.06944 9.16065 5.76351 9.51293 5.29285C10.7107 3.71612 11.9319 2.11586 13.0827 0.492072C13.4585 -0.0256584 13.7638 -0.119791 14.3509 0.139074C19.7291 2.58653 25.1072 5.01045 30.4854 7.43437C36.2393 10.023 42.0167 12.6117 47.7706 15.2239C48.3343 15.4827 48.8274 16.0005 49.2032 16.4946C53.2192 21.5778 57.2117 26.6845 61.1807 31.7912C61.3217 31.9795 61.4391 32.1913 61.6035 32.356C61.9557 32.7326 61.8618 33.015 61.533 33.368C60.5701 34.3093 59.6542 35.2741 58.6913 36.1919C58.2451 36.6155 58.1042 37.0627 58.1042 37.651C58.1042 42.2164 58.0807 46.8054 58.1042 51.3709C58.1042 52.0298 57.8928 52.4063 57.3291 52.7358C50.8472 56.4776 44.3887 60.2429 37.9067 63.9847C37.5545 64.1729 36.9673 64.2435 36.6151 64.0788C30.7907 61.4666 25.0133 58.8309 19.1889 56.1952C13.1062 53.4418 6.99998 50.6884 0.917272 47.9585C0.259681 47.6526 -0.0221344 47.3231 0.00135098 46.5701C0.0718071 43.8873 0.0483103 41.228 0.0483103 38.5688ZM54.323 36.3567C43.872 31.8148 33.6324 27.367 23.2988 22.8721C23.2519 23.2487 23.2049 23.4369 23.2049 23.6017C23.2049 26.9669 23.2049 30.3322 23.1814 33.6974C23.1814 34.2857 23.5102 34.474 23.9095 34.6623C29.6399 37.2509 35.3703 39.8396 41.1008 42.4753C41.7818 42.7812 42.322 42.7812 43.0031 42.4047C45.563 40.9927 48.1698 39.6513 50.7532 38.2629C51.8805 37.6745 53.0078 37.0627 54.323 36.3567ZM38.4469 60.9489C38.6817 60.8783 38.7992 60.8547 38.8696 60.8077C44.3417 57.6307 49.7903 54.4302 55.2624 51.2532C55.6852 51.0179 55.8261 50.7119 55.8261 50.2413C55.8026 46.5465 55.8261 42.8283 55.8261 39.1336C55.8261 38.8983 55.8026 38.6394 55.7556 38.2864C55.4034 38.4511 55.1685 38.5217 54.9571 38.6394C49.6259 41.4634 44.2948 44.2874 38.9636 47.1113C38.4939 47.3467 38.3765 47.6761 38.3765 48.1939C38.3999 52.1945 38.3765 56.1716 38.3999 60.1723C38.3999 60.3841 38.4234 60.6194 38.4469 60.9489ZM14.4449 9.08169C14.5623 9.31702 14.5858 9.43469 14.6562 9.50529C17.2631 12.9176 19.87 16.3299 22.5238 19.7187C22.7587 20.0246 23.1344 20.307 23.5102 20.4482C32.9748 24.5901 42.4629 28.7084 51.951 32.8267C52.1154 32.8973 52.3033 32.8973 52.5381 32.9444C52.5146 32.8032 52.5146 32.7326 52.4912 32.709C49.6025 29.2496 46.6903 25.8138 43.7781 22.3779C43.5902 22.1426 43.3084 21.9544 43.0265 21.8367C40.5606 20.7071 38.0711 19.6246 35.6052 18.495C28.8179 15.4357 22.0306 12.3999 15.2433 9.34056C15.0085 9.24642 14.7971 9.17582 14.4449 9.08169ZM26.6807 56.9953C26.7042 56.6894 26.7512 56.4776 26.7512 56.2893C26.7512 52.171 26.7512 48.0291 26.7747 43.9108C26.7747 43.346 26.4929 43.1342 26.0701 42.946C21.514 40.8986 16.9813 38.8512 12.4251 36.8038C11.6266 36.4508 11.5796 36.4743 11.5796 37.3215C11.5796 41.3222 11.6031 45.2993 11.5561 49.2999C11.5561 49.9824 11.8145 50.3354 12.4016 50.6178C16.7934 52.5946 21.1617 54.5714 25.5299 56.5482C25.9057 56.7129 26.258 56.8306 26.6807 56.9953ZM20.9738 22.8486C15.2903 25.3902 9.74778 27.8377 4.06432 30.3792C4.4166 30.5675 4.60448 30.7087 4.81585 30.8028C8.69094 32.5678 12.566 34.3328 16.4411 36.0743C16.7699 36.2155 17.2631 36.1919 17.6154 36.0507C18.4843 35.6977 19.2828 35.18 20.1518 34.8035C20.7859 34.5446 20.9973 34.1681 20.9973 33.4856C20.9738 30.2851 20.9738 27.0846 20.9738 23.8605C20.9738 23.6252 20.9738 23.3663 20.9738 22.8486ZM9.2311 49.1352C9.27807 48.8999 9.32503 48.8293 9.32503 48.7587C9.32503 44.4756 9.34852 40.2161 9.30155 35.9331C9.30155 35.6507 8.99624 35.2741 8.7379 35.1329C6.83558 34.2152 4.8863 33.3915 2.98398 32.4972C2.42033 32.2384 2.30291 32.4502 2.30291 32.9679C2.30291 37.0862 2.30291 41.2045 2.30291 45.3228C2.30291 45.817 2.51429 46.0994 2.93702 46.2877C3.6181 46.5936 4.32266 46.9231 5.00373 47.229C6.36588 47.8644 7.77501 48.4763 9.2311 49.1352ZM29.1937 44.405C29.1467 44.711 29.0997 44.8992 29.0997 45.111C29.0997 49.2529 29.0762 53.3947 29.1232 57.5601C29.1232 57.866 29.4285 58.2896 29.7103 58.4308C31.6361 59.3486 33.5854 60.2193 35.5582 61.0901C35.6756 61.1371 35.84 61.1371 36.0514 61.1607C36.0514 60.8077 36.0514 60.5253 36.0514 60.2429C36.0514 56.7835 35.934 53.3006 36.0984 49.8412C36.1923 48.0527 35.6991 47.0878 33.9847 46.523C32.3642 45.9818 30.8376 45.1346 29.1937 44.405ZM20.7859 9.12876C20.8798 9.26996 20.8798 9.31702 20.9268 9.34056C25.6004 11.4585 30.274 13.5765 34.9711 15.671C35.1355 15.7416 35.5112 15.6475 35.6521 15.5063C36.2628 14.7532 36.8029 13.9766 37.4135 13.1529C37.1317 12.9882 36.9203 12.847 36.6855 12.7529C34.5718 11.788 32.4581 10.8467 30.3444 9.88182C27.9959 8.82283 25.6239 7.76383 23.2753 6.72837C23.0875 6.63424 22.6882 6.6107 22.5943 6.72837C21.9602 7.5285 21.373 8.35216 20.7859 9.12876ZM47.6532 18.4008C47.1365 19.0833 46.7372 19.6952 46.2441 20.2364C45.7274 20.8248 45.7978 21.2484 46.291 21.8367C49.485 25.5785 52.6555 29.3438 55.8261 33.1091C57.0708 34.5917 57.0473 34.5917 58.386 33.2268C58.7383 32.8502 58.8792 32.6149 58.5034 32.1207C55.0276 27.6965 51.5517 23.2487 48.0994 18.8244C48.0054 18.6832 47.8645 18.5891 47.6532 18.4008ZM19.9874 37.6275C20.2457 37.7687 20.5041 37.9099 20.7389 38.0275C25.9527 40.4044 31.1429 42.7577 36.3567 45.111C37.2256 45.5111 38.6818 45.0169 39.1984 44.1226C38.9871 44.005 38.7992 43.8873 38.5878 43.7932C33.515 41.5104 28.4421 39.2042 23.3928 36.9215C22.0776 36.3331 21.1617 36.4743 19.9874 37.6275ZM37.5545 16.8476C39.6212 17.7654 41.547 18.6362 43.4728 19.4834C43.6137 19.5304 43.872 19.5304 43.9425 19.4363C44.5766 18.6362 45.2107 17.789 45.8918 16.8712C43.8251 15.9534 41.9227 15.0827 40.0204 14.259C39.856 14.1884 39.4803 14.2825 39.3628 14.4237C38.7757 15.2003 38.2121 15.9769 37.5545 16.8476ZM12.2842 5.41051C12.613 5.59878 12.8478 5.71644 13.0827 5.83411C14.3274 6.39891 15.5487 6.94017 16.7934 7.5285C18.4843 8.3051 18.4843 8.32863 19.6351 6.79897C19.8465 6.51657 20.0579 6.25771 20.2692 5.99884C20.551 5.66938 20.4806 5.45758 20.0813 5.26931C18.3434 4.49272 16.629 3.69259 14.8676 2.93953C14.6562 2.84539 14.21 2.93953 14.0691 3.10426C13.4585 3.81025 12.9183 4.56332 12.2842 5.41051Z" fill="#F0D53B"/>
</svg>
