<svg width="65" height="65" viewBox="0 0 65 65" fill="#F0D53B" xmlns="http://www.w3.org/2000/svg">
<path d="M53.8017 8.47143C54.5766 7.53016 55.3281 6.58889 56.0561 5.69469C56.9015 6.5183 57.5356 7.15366 58.334 7.9302C57.4417 8.70675 56.5258 9.4833 55.5864 10.2834C61.1521 16.637 64.0406 23.8141 64.0172 32.0973C64.0172 40.357 61.1521 47.5342 55.516 53.9348C56.0091 54.3113 56.5023 54.6643 56.972 55.0643C57.4182 55.4408 57.8409 55.8173 58.2871 56.1939C57.4886 56.9233 56.8311 57.5116 56.0091 58.2882C55.3986 57.5352 54.6471 56.5939 53.8721 55.6291C47.3905 61.2061 40.2984 64.1711 32.0321 64.1711C23.7892 64.1711 16.6501 61.2532 10.3094 55.8173C9.55795 56.7351 8.78298 57.6528 8.00802 58.5706C7.13911 57.6764 6.52853 57.0175 5.77704 56.2409C6.59898 55.535 7.49137 54.7349 8.40724 53.9348C2.93549 47.4871 0 40.3805 0 32.0503C0 23.7435 2.95897 16.6605 8.36027 10.3304C7.49137 9.50683 6.59898 8.68322 5.70659 7.83608C6.45808 7.13012 7.09214 6.49477 7.8906 5.71822C8.64208 6.58889 9.39357 7.4831 10.192 8.42437C16.5796 2.91794 23.7422 0 32.0086 0C40.2514 0 47.3905 2.89441 53.8017 8.47143ZM49.6685 31.2972C50.5844 31.2972 51.3828 31.2972 52.2987 31.2972C52.2987 30.2383 52.2987 29.2029 52.2987 28.1911C52.8153 28.1911 53.1911 28.1911 53.6842 28.1911C53.6842 29.25 53.6842 30.2618 53.6842 31.2502C54.5297 31.3208 54.5531 31.3208 54.4827 30.5207C54.1774 26.3085 52.8858 22.4022 50.3495 19.0372C44.502 11.2482 36.7054 8.16552 27.1474 10.0481C18.4349 11.7659 11.5541 18.9666 9.88673 27.791C9.67537 28.9441 9.60492 30.1207 9.46402 31.2972C9.95718 31.2972 10.239 31.2972 10.6382 31.2972C10.6382 30.2383 10.6382 29.2265 10.6382 28.2146C11.1549 28.2146 11.5541 28.2146 12.0707 28.2146C12.0707 29.2735 12.0707 30.2854 12.0707 31.2972C12.9631 31.2972 13.7616 31.2972 14.607 31.2972C14.654 30.7325 14.6774 30.2148 14.7009 29.6736C15.1471 29.6736 15.5464 29.6736 15.9456 29.6736C15.9925 30.2383 15.8282 30.9913 16.0865 31.2266C16.4153 31.509 17.1198 31.3443 17.6599 31.3678C17.6834 31.3678 17.7069 31.3678 17.7538 31.3678C19.8439 31.3678 21.9105 31.3678 24.024 31.3678C24.071 31.2031 24.118 31.0619 24.118 30.9443C24.6816 26.8968 28.0163 24.0024 32.079 24.0259C36.0243 24.0495 39.3825 27.0145 39.8757 30.6384C39.9227 31.0384 39.8992 31.4384 40.5567 31.4384C42.2476 31.3914 43.9619 31.4384 45.6762 31.4384C46.5451 31.4384 47.414 31.4384 48.3534 31.4384C48.3534 30.7325 48.3534 30.2148 48.3534 29.6736C48.8465 29.6736 49.2458 29.6736 49.7155 29.6736C49.6685 30.2148 49.6685 30.709 49.6685 31.2972ZM6.43459 31.3208C6.43459 29.4382 6.43459 27.6498 6.43459 25.8143C6.92776 25.8143 7.32698 25.8143 7.84363 25.8143C7.84363 26.1673 7.84363 26.4497 7.84363 26.7556C7.84363 28.0499 7.82014 29.3676 7.86711 30.6619C7.86711 30.8972 8.05498 31.109 8.14892 31.3208C8.26634 31.0855 8.40724 30.8737 8.52466 30.6384C8.52466 30.6148 8.52466 30.5913 8.52466 30.5678C8.85344 25.6026 10.5208 21.1315 13.6676 17.3194C19.1394 10.707 26.2315 7.67135 34.7562 8.73028C44.4551 9.9304 50.9601 15.4604 54.3183 24.6142C55.0933 26.7086 55.3281 29.0147 55.8213 31.2972C56.4553 31.4149 56.4553 31.4149 56.4788 30.6619C56.4788 29.0617 56.4788 27.4616 56.4788 25.8379C56.9955 25.8379 57.3947 25.8379 57.8879 25.8379C57.8879 27.6734 57.8879 29.4618 57.8879 31.2972C59.0386 31.2972 60.0953 31.2972 61.2226 31.2972C60.8703 24.0965 58.4984 17.8371 53.4729 12.2836C52.8623 13.0837 52.3222 13.8131 51.8055 14.472C51.0071 13.672 50.373 13.0366 49.598 12.2365C50.2791 11.6953 50.9601 11.1541 51.6646 10.6128C41.1673 0.400039 23.0847 0.211786 12.3525 10.5658C13.0571 11.1305 13.7851 11.6953 14.4896 12.26C13.6911 13.0837 13.0571 13.7425 12.3995 14.425C11.7185 13.7661 11.0609 13.1543 10.3564 12.4718C5.5422 17.8606 3.14684 24.1201 2.84155 31.3208C4.06272 31.3208 5.16646 31.3208 6.43459 31.3208ZM31.2336 47.9813C31.2571 47.8165 31.2806 47.6283 31.2806 47.44C31.2806 45.2516 31.2571 43.0631 31.3041 40.8747C31.3041 40.2864 31.1397 40.0746 30.5526 39.9569C27.2413 39.2745 25.1278 37.2508 24.2589 33.9799C24.165 33.5798 24.071 33.1798 24.0006 32.7797C21.3234 32.7797 18.6932 32.7797 16.0865 32.7797C15.9221 34.7094 15.9221 34.7094 14.6774 34.3564C14.654 33.8857 14.607 33.3916 14.5835 32.8503C13.7381 32.8503 12.9162 32.8503 12.0003 32.8503C12.0003 33.9328 12.0003 34.9447 12.0003 35.9095C11.4836 35.9095 11.0844 35.9095 10.5678 35.9095C10.5678 34.8505 10.5678 33.8387 10.5678 32.8268C10.1685 32.8268 9.88673 32.8268 9.58144 32.8268C9.55795 44.6162 20.1492 54.6408 31.2101 54.476C31.2101 54.1701 31.2101 53.8642 31.2101 53.4406C30.1299 53.4406 29.1435 53.4406 28.1572 53.4406C28.1572 52.9229 28.1572 52.5229 28.1572 52.0523C29.0496 52.0523 29.8715 52.0758 30.6935 52.0287C30.8814 52.0287 31.2336 51.7934 31.2571 51.6287C31.3275 50.9227 31.2806 50.2168 31.2806 49.4873C30.623 49.4638 30.1299 49.4167 29.5428 49.3932C29.5663 48.9461 29.4958 48.3578 29.6367 48.2872C30.0829 48.0989 30.6465 48.0989 31.2336 47.9813ZM32.7835 54.5702C33.1358 54.5702 33.4176 54.5937 33.6759 54.5702C41.5196 53.7936 47.4845 50.0521 51.5237 43.2749C53.3085 40.3099 54.2244 37.039 54.4592 33.5798C54.5062 33.0386 54.4592 32.615 53.6373 32.9209C53.6373 33.9093 53.6373 34.9211 53.6373 35.9565C53.1441 35.9565 52.7449 35.9565 52.2282 35.9565C52.2282 34.8976 52.2282 33.8857 52.2282 32.8739C51.3358 32.8739 50.5374 32.8739 49.7155 32.8739C49.692 33.4386 49.6685 33.9563 49.6215 34.4976C49.1518 34.4976 48.7526 34.4976 48.3064 34.4976C48.2829 34.0505 48.3299 33.674 48.236 33.2974C48.189 33.0857 47.9307 32.8033 47.7663 32.7797C47.1087 32.7092 46.4512 32.7562 45.7936 32.7562C44.1263 32.7562 42.4354 32.8033 40.7681 32.7562C40.228 32.7327 39.9931 32.8268 39.8992 33.4151C39.2651 36.9213 36.8932 39.3451 33.4176 40.004C32.9245 40.0981 32.7366 40.2864 32.7366 40.8041C32.7366 42.3572 32.6896 43.9103 32.6896 45.4634C32.6896 46.334 32.6896 47.2047 32.6896 48.0754C33.3941 48.1225 33.8873 48.146 34.4274 48.1695C34.4274 48.6166 34.4274 49.0167 34.4274 49.4638C33.8873 49.4873 33.3706 49.5344 32.807 49.5579C32.807 50.405 32.807 51.1816 32.807 52.0993C33.8403 52.0993 34.8501 52.0993 35.8834 52.0993C35.8834 52.6406 35.8834 53.0641 35.8834 53.5583C34.8266 53.5583 33.8403 53.5583 32.8305 53.5583C32.807 53.7701 32.7601 53.9113 32.7601 54.0289C32.7366 54.1701 32.7835 54.3348 32.7835 54.5702ZM55.5864 32.8503C55.5395 33.0386 55.516 33.1092 55.516 33.1798C55.2577 38.145 53.6138 42.5454 50.5844 46.4988C47.6724 50.2874 43.9854 52.97 39.4765 54.4054C37.5038 55.0408 35.3668 55.229 33.3237 55.6291C33.1358 55.6762 32.9479 55.8409 32.7601 55.9585C32.9479 56.0527 33.1358 56.2409 33.3237 56.2644C33.9812 56.3115 34.6623 56.288 35.3198 56.288C36.3061 56.288 37.2925 56.288 38.2318 56.288C38.4667 57.7469 38.4432 57.7469 37.175 57.7469C35.719 57.7469 34.263 57.7469 32.807 57.7469C32.807 58.9941 32.807 60.1001 32.807 61.3002C40.0166 61.0649 46.1929 58.547 51.5707 53.7701C50.8896 53.0641 50.2791 52.4052 49.692 51.7934C50.373 51.0875 50.9836 50.4286 51.8055 49.5814C52.3926 50.3109 52.9562 51.0169 53.4964 51.7228C57.7939 47.7695 62.1619 36.686 61.0112 32.8974C59.9779 32.8974 58.9446 32.8974 57.8174 32.8974C57.8174 34.7564 57.8174 36.5448 57.8174 38.3568C57.3242 38.3568 56.925 38.3568 56.4319 38.3568C56.4319 36.4978 56.4319 34.7094 56.4319 32.8739C56.1031 32.8503 55.8682 32.8503 55.5864 32.8503ZM25.7853 56.2644C27.4527 56.2644 29.0731 56.2644 30.717 56.2409C30.9048 56.2409 31.0692 56.0291 31.2336 55.9115C31.0692 55.8173 30.9048 55.6526 30.717 55.6291C29.942 55.535 29.167 55.5114 28.4155 55.3938C18.294 53.7936 10.4973 46.0752 8.78299 35.933C8.64208 35.0859 8.59511 34.2152 8.47769 33.368C8.45421 33.1563 8.28982 32.9915 8.1724 32.8033C8.05498 33.0151 7.86711 33.2033 7.84363 33.4151C7.79666 33.7681 7.82014 34.1446 7.82014 34.4976C7.82014 35.7683 7.82014 37.039 7.82014 38.3097C7.28001 38.3097 6.88079 38.3097 6.36414 38.3097C6.36414 36.4507 6.36414 34.6388 6.36414 32.7797C5.68311 32.7797 5.11949 32.7797 4.57936 32.7797C4.01575 32.7797 3.45214 32.7797 2.79459 32.7797C3.17033 40.0511 5.51872 46.3105 10.3329 51.6522C11.0609 50.9698 11.695 50.3344 12.3291 49.7461C13.0101 50.4521 13.6442 51.0875 14.3956 51.8405C14.0904 52.0993 13.7616 52.4052 13.4093 52.6876C13.0571 52.97 12.6813 53.2524 12.2351 53.6054C17.8478 58.5 24.024 61.0885 31.2101 61.2532C31.2101 60.006 31.2101 58.9 31.2101 57.6999C29.7072 57.6999 28.2512 57.6999 26.7951 57.6999C25.527 57.7234 25.527 57.6999 25.7853 56.2644Z" fill="#F0D53B"/>
</svg>
