<svg width="64" height="65" viewBox="0 0 64 65" fill="#F0D53B" xmlns="http://www.w3.org/2000/svg">
<path d="M31.8565 64.1711C31.786 64.1711 31.739 64.1711 31.6685 64.1711C23.1879 64.124 15.2475 60.7578 9.28051 54.7316C3.21953 48.5876 -0.0693669 40.3486 0.00110957 31.5917C0.165555 14.0309 14.6367 -0.140193 32.2558 0.00104668C40.8305 0.0716667 48.8648 3.43789 54.8083 9.51121C60.7753 15.5845 64.0172 23.6588 63.9702 32.2744C63.9232 40.9136 60.5404 48.9643 54.4794 54.967C48.4654 60.9226 40.4311 64.1711 31.8565 64.1711ZM31.9974 2.82585C16.0227 2.82585 2.96112 15.7022 2.84366 31.6153C2.77318 39.6189 5.78018 47.1281 11.3008 52.7542C16.7275 58.2626 23.9631 61.3228 31.692 61.3699C31.7625 61.3699 31.8095 61.3699 31.8799 61.3699C48.2305 61.3699 61.0807 48.6347 61.1747 32.2744C61.2451 15.8906 48.5594 2.96709 32.2323 2.82585C32.1619 2.82585 32.0679 2.82585 31.9974 2.82585Z" fill="#F0D53B"/>
<path d="M16.9389 42.8203C18.5364 42.9851 20.3218 43.3853 22.0602 43.2676C22.7885 43.2205 23.4698 42.0906 24.151 41.455C23.2818 40.8665 22.4831 39.9485 21.5199 39.7601C19.6875 39.407 17.7377 39.6189 15.9053 39.2893C12.9688 38.7715 11.1129 36.2762 11.0894 32.91C11.8646 33.475 12.4754 33.9693 13.1332 34.3695C14.3078 35.0992 15.4589 35.8996 16.7275 36.3939C18.1135 36.9353 18.7243 36.2762 18.4659 34.7932C17.9961 31.9919 17.0799 29.5673 14.2608 28.0607C11.5827 26.6483 9.53892 24.4827 9.25701 21.1635C9.23352 20.7869 9.21002 20.4102 9.23352 20.0336C9.25701 19.8688 9.37447 19.704 9.5859 19.3039C10.3846 20.3161 11.0659 21.2341 11.7942 22.1051C12.264 22.6936 12.7338 23.3527 13.3446 23.7529C14.2373 24.3179 15.2475 24.6945 16.2342 25.1418C16.1402 24.2002 16.1637 23.2115 15.9053 22.317C14.8951 18.786 15.5529 15.6081 17.9726 13.1599C17.9726 14.8077 17.8551 16.4084 18.0196 17.9621C18.1135 18.786 18.5129 20.0571 19.1002 20.269C19.758 20.5044 20.9091 19.9865 21.5434 19.4216C22.4596 18.6212 23.1174 17.5148 23.9631 16.4084C24.8558 17.3971 24.8793 18.5977 24.2685 19.704C23.7282 20.6692 23.0234 21.6343 22.1777 22.317C19.8755 24.2237 19.2177 26.6954 19.6875 29.4496C20.6977 35.3582 24.9967 38.8892 29.3663 42.7497C29.6247 40.6782 29.6482 38.6302 31.9974 38.6538C34.2526 38.7008 34.4406 40.6076 34.4171 42.7733C39.1625 38.7479 43.579 34.958 44.3308 28.6963C44.5892 26.4836 44.0019 24.3414 42.1695 22.7172C41.2768 21.9403 40.4546 21.0458 39.7968 20.0571C39.0216 18.8801 39.092 17.609 39.8438 16.2907C40.7835 17.4677 41.5117 18.6447 42.4749 19.5393C43.0387 20.0571 44.1898 20.5044 44.8006 20.269C45.3644 20.0571 45.8813 18.9272 45.9282 18.1739C46.0222 16.5026 45.8343 14.8077 45.7403 12.8774C49.499 16.6438 48.5594 20.881 47.1968 25.3772C51.0495 24.7416 52.0832 21.4695 54.4794 19.3274C54.9727 21.1635 54.7143 22.7642 53.7511 23.9177C52.3416 25.6361 50.7206 27.331 48.8648 28.4845C46.1632 30.1794 45.8108 32.7923 45.3879 35.4523C45.3409 35.6877 46.633 36.5116 47.0794 36.3468C48.301 35.9231 49.4286 35.1698 50.5327 34.4872C51.261 34.0399 51.9422 33.475 52.7175 32.91C52.9054 35.9937 50.9556 38.6773 48.0425 39.2423C46.3276 39.5718 44.5422 39.5012 42.8038 39.6424C41.5117 39.7366 39.8908 39.9014 39.8908 41.3373C39.8908 42.0671 41.5117 43.3147 42.4749 43.4088C43.9784 43.5501 45.5524 42.9145 46.9619 42.632C46.68 44.7506 43.8374 46.3278 41.1124 45.4568C40.4076 45.2214 39.7498 44.8212 39.0216 44.5858C37.8939 44.1857 36.7663 44.3034 36.2965 45.4804C36.0146 46.1866 35.9676 47.646 36.273 47.8108C37.0247 48.1639 38.0584 47.9756 38.9981 47.9756C39.1625 47.9756 39.327 47.905 39.5149 47.8814C39.1155 50.4473 38.0819 50.7062 34.699 49.2468C32.2793 51.8832 31.2456 51.8832 29.3663 49.2468C25.5136 50.6356 24.7853 50.4238 24.2215 47.5519C24.5739 47.7637 24.7853 47.9991 25.0202 47.9991C25.8894 48.0227 26.8996 48.2345 27.5574 47.8814C27.9098 47.6931 28.0507 46.2336 27.6983 45.7393C27.252 45.1037 26.2653 44.5858 25.4666 44.4917C24.7383 44.4211 23.9631 45.0096 23.2113 45.3156C20.4158 46.4455 17.8551 45.292 16.9389 42.8203Z" fill="#F0D53B"/>
</svg>
