<svg width="78" height="78" viewBox="0 0 78 78" fill="none" xmlns="http://www.w3.org/2000/svg">
<g clip-path="url(#clip0)">
<path d="M51.4233 62.5398C46.6437 62.5398 41.8641 62.5578 37.0846 62.5398C35.5154 62.5398 34.6136 61.7302 34.5595 60.3448C34.5054 58.8335 35.5335 57.826 37.1747 57.808C43.0726 57.808 48.9523 57.808 54.8502 57.808C58.5115 57.808 62.1909 57.79 65.8522 57.826C67.728 57.8439 68.7741 59.3373 68.1789 61.0825C67.8362 62.09 67.0606 62.5578 65.6718 62.5578C61.2169 62.5578 56.78 62.5578 52.3251 62.5578C52.0185 62.5398 51.7299 62.5398 51.4233 62.5398Z" fill="black"/>
<path d="M21.1226 50.8991C23.846 52.3204 26.6056 53.6338 29.329 55.0192C30.2308 55.469 31.0425 55.2891 31.8 54.8213C32.5755 54.3355 32.9182 53.5619 32.7739 52.6623C32.3952 50.1974 31.9803 47.7505 31.5835 45.3036C31.5475 45.0697 31.5655 44.8178 31.4753 44.6019C30.7539 42.8927 31.4573 41.7412 32.7739 40.6077C34.5956 39.0424 36.2549 37.2972 37.9864 35.6419C38.0946 35.534 38.2028 35.444 38.311 35.3361C39.0866 34.5804 39.6818 33.7348 39.2309 32.6193C38.816 31.5758 37.8601 31.3239 36.814 31.1979C33.6216 30.8021 30.4473 30.3523 27.2549 29.8845C26.9483 29.8306 26.5695 29.5067 26.4252 29.2188C25.0364 26.4301 23.6657 23.6233 22.331 20.8166C21.8801 19.881 21.2849 19.2153 20.1847 19.1614C19.0124 19.1254 18.1827 19.6651 17.6596 20.7087C16.2889 23.4434 14.9362 26.1782 13.5113 28.895C13.331 29.2548 12.844 29.6147 12.4652 29.6866C9.45321 30.2264 6.42314 30.7481 3.39307 31.162C2.34697 31.3059 1.49927 31.5938 0.831938 32.6193C0.831938 32.6193 -0.142013 33.8427 0.831938 34.8143C2.45519 36.4336 4.07844 37.9269 5.64758 39.4382C6.53136 40.2838 7.39709 41.1655 8.31693 41.9931C8.71373 42.3529 8.85802 42.7128 8.76784 43.2525C8.24479 46.3291 7.77585 49.4057 7.21673 52.4644C7.03637 53.4899 7.21673 54.3175 8.01032 54.9652C8.87605 55.6669 9.85 55.7749 10.8781 55.2531C13.6917 53.8138 16.5053 52.4104 19.3009 50.9351C19.9502 50.5932 20.4372 50.5572 21.1226 50.8991ZM13.4392 48.2363C13.2588 48.3262 13.0604 48.3982 12.7177 48.5601C13.0785 46.653 13.3129 44.8358 13.7638 43.0906C14.1787 41.4893 13.7819 40.3378 12.5374 39.2763C11.1306 38.0708 9.85 36.7394 8.33497 35.3001C10.1205 35.0302 11.7258 34.7963 13.3129 34.5624C13.8721 34.4725 14.4492 34.4185 15.0083 34.3645C16.0364 34.2386 16.7939 33.7168 17.2268 32.7632C18.0925 30.8561 18.9763 28.9669 19.9683 26.8439C20.5635 27.9774 21.0865 28.913 21.5915 29.8845C22.1146 30.8921 22.6737 31.8996 23.1607 32.9252C23.5034 33.6628 24.0805 33.9687 24.8561 34.0766C26.9483 34.3465 29.0224 34.6524 31.0966 34.9582C31.2769 34.9762 31.4393 35.0302 31.8541 35.1202C30.5194 36.3976 29.329 37.5311 28.1386 38.6646C27.7779 39.0244 27.3811 39.3483 27.0384 39.7261C26.4072 40.3738 26.1547 41.1295 26.335 42.0291C26.6958 43.8822 27.0204 45.7354 27.3631 47.5886C27.3992 47.7865 27.3992 48.0024 27.4352 48.3622C26.7679 48.0384 26.2268 47.7685 25.6677 47.4806C24.4052 46.8329 23.1426 46.2032 21.9162 45.5195C20.7438 44.8538 19.6436 44.9078 18.5073 45.5555C16.83 46.4371 15.1166 47.3367 13.4392 48.2363Z" fill="#F0D53B"/>
<path d="M57.0686 0H23.2509C22.6196 0.215903 22.0064 0.395822 21.4653 0.683692C18.9583 1.9971 17.6957 4.13814 17.6055 6.94487C17.5334 9.37378 17.5875 11.8027 17.6055 14.2316C17.6236 15.7609 18.5615 16.7325 19.9683 16.7505C21.3751 16.7505 22.349 15.7969 22.3851 14.2856C22.4212 12.0366 22.4032 9.7876 22.4032 7.53861C22.3671 5.45155 23.1426 4.6779 25.1807 4.6779C34.3431 4.6779 43.5235 4.6779 52.6858 4.6779C53.0465 4.6779 53.3892 4.6779 53.8762 4.6779C53.8762 5.03773 53.8762 5.3256 53.8762 5.61347C53.8762 9.21185 53.8762 12.8102 53.8762 16.4086C53.8762 20.9606 56.9243 23.9832 61.4694 23.9472C65.1127 23.9292 68.738 23.9472 72.3813 23.9472C72.6158 23.9472 72.8502 23.9652 73.1929 23.9832C73.1929 24.7389 73.1929 25.4405 73.1929 26.1602C73.1929 40.5178 73.1929 54.8933 73.1929 69.2508C73.1929 71.5718 72.5256 72.2375 70.1809 72.2375C55.0846 72.2375 39.9884 72.2375 24.8921 72.2375C23.2148 72.2375 22.3671 71.3739 22.3671 69.6646C22.3671 64.9508 22.3851 60.2549 22.349 55.541C22.331 53.5619 20.7619 52.4824 18.9943 53.1481C18.0204 53.5259 17.5875 54.2816 17.5875 55.2531C17.5695 60.2909 17.4973 65.3286 17.6236 70.3663C17.6957 73.4789 19.824 75.9078 22.818 76.7535C23.0164 76.8074 23.1967 76.8794 23.3951 76.9334C23.3951 76.9514 23.3771 76.9874 23.3771 77.0053H72.2009C75.213 76.2137 77.1067 74.3425 77.9544 71.3559V20.8706C70.9925 13.8897 64.1027 7.03483 57.0686 0ZM69.2069 19.1614C66.5556 19.1614 63.9223 19.1794 61.271 19.1614C59.5215 19.1434 58.7099 18.3697 58.6919 16.6425C58.6558 13.9977 58.6919 11.3709 58.6919 8.72607C58.6919 8.58214 58.7279 8.4382 58.746 8.33025C62.3712 11.9466 65.9604 15.509 69.5857 19.1074C69.4594 19.1074 69.3332 19.1614 69.2069 19.1614Z" fill="black"/>
<path d="M50.1885 46.7373C50.0889 48.1143 49.5791 49.1982 48.6592 49.9893C47.7451 50.7803 46.5381 51.1758 45.0381 51.1758C43.3975 51.1758 42.1055 50.625 41.1621 49.5234C40.2246 48.416 39.7559 46.8984 39.7559 44.9707V44.1885C39.7559 42.958 39.9727 41.874 40.4062 40.9365C40.8398 39.999 41.458 39.2812 42.2607 38.7832C43.0693 38.2793 44.0068 38.0273 45.0732 38.0273C46.5498 38.0273 47.7393 38.4229 48.6416 39.2139C49.5439 40.0049 50.0654 41.1152 50.2061 42.5449H47.5693C47.5049 41.7188 47.2734 41.1211 46.875 40.752C46.4824 40.377 45.8818 40.1895 45.0732 40.1895C44.1943 40.1895 43.5352 40.5059 43.0957 41.1387C42.6621 41.7656 42.4395 42.7412 42.4277 44.0654V45.0322C42.4277 46.415 42.6357 47.4258 43.0518 48.0645C43.4736 48.7031 44.1357 49.0225 45.0381 49.0225C45.8525 49.0225 46.459 48.8379 46.8574 48.4688C47.2617 48.0938 47.4932 47.5166 47.5518 46.7373H50.1885Z" fill="black"/>
<path d="M56.6572 46.3154H54.5566V51H51.9199V38.2031H56.6748C58.1865 38.2031 59.3525 38.54 60.1729 39.2139C60.9932 39.8877 61.4033 40.8398 61.4033 42.0703C61.4033 42.9434 61.2129 43.6729 60.832 44.2588C60.457 44.8389 59.8857 45.3018 59.1182 45.6475L61.8867 50.877V51H59.0566L56.6572 46.3154ZM54.5566 44.1797H56.6836C57.3457 44.1797 57.8584 44.0127 58.2217 43.6787C58.585 43.3389 58.7666 42.873 58.7666 42.2812C58.7666 41.6777 58.5938 41.2031 58.248 40.8574C57.9082 40.5117 57.3838 40.3389 56.6748 40.3389H54.5566V44.1797Z" fill="black"/>
</g>
<defs>
<clipPath id="clip0">
<rect width="77.5554" height="77.0053" fill="white" transform="translate(0.417114)"/>
</clipPath>
</defs>
</svg>
